<?xml version="1.0" standalone="no"?><!DOCTYPE svg PUBLIC "-//W3C//DTD SVG 1.1//EN" "http://www.w3.org/Graphics/SVG/1.1/DTD/svg11.dtd"><svg t="1574758474337" class="icon" viewBox="0 0 1024 1024" version="1.1" xmlns="http://www.w3.org/2000/svg" p-id="1722" xmlns:xlink="http://www.w3.org/1999/xlink" width="200" height="200"><defs><style type="text/css"></style></defs><path d="M473.9 896.5c0-9 3.4-17.9 10.3-24.7L843.9 512 484.1 152.2c-13.7-13.7-13.7-35.8 0-49.5 13.7-13.7 35.8-13.7 49.5 0l384.5 384.5c13.7 13.7 13.7 35.8 0 49.5L533.6 921.3c-13.7 13.7-35.8 13.7-49.5 0-6.8-6.9-10.2-15.8-10.2-24.8z" p-id="1723" fill="#bfbfbf"></path><path d="M95.6 512c0-19.3 15.7-35 35-35h762.7c19.3 0 35 15.7 35 35s-15.7 35-35 35H130.6c-19.3 0-35-15.7-35-35z" p-id="1724" fill="#bfbfbf"></path></svg>